<svg xmlns="http://www.w3.org/2000/svg" xmlns:xlink="http://www.w3.org/1999/xlink" width="680px" height="790px"
    viewBox="-0.30770567059516907 0 680.6153564453125 790" preserveAspectRatio="xMidYMid meet">
    <rect id="svgEditorBackground" x="0" y="0" width="680" height="790" style="fill:none; stroke: none;" />
    <defs id="svgEditorDefs">
        <polygon id="svgEditorIconDefs" style="fill:rosybrown;" />
        <path id="svgEditorClosePathDefs" style="stroke:saddlebrown;stroke-width:1px;fill:teal;" />
    </defs>
    <circle id="e4_circle" cx="327.735718" cy="518.735657" style="fill:white;stroke:white;stroke-width:1px;"
        r="127.191002" />
    <circle id="e5_circle" cx="338.735718" cy="301.735657" style="fill:white;stroke:white;stroke-width:1px;"
        r="156.869003" />
    <path d="M292.7357,362.73569q31,19,56-10" style="fill:none;stroke:black;stroke-width:1px;" id="e6_arc2" />
    <path
        d="M295.0757,331.35269q12.9,1.953,24.66-8.617q2.05-2.22,3.617-7.957q1.14-13.442-3.404-17q-4.85-6.986-15.213-8.043q-26.49,0.9-42.723,1.447q-49.907-0.7-58.277,6.553q-4.89,5.38,6,10q47.35,15.63,85.34,23.894Z"
        style="stroke:orange;fill:orange;stroke-width:1px;" id="e10_area2" />
    <path
        d="M280.7357,143.73569c70.71,18.27,136.47,21.7,185,56s4.65,42.478,3,43s-38.25,7.66-127-20s-89.513-42.053-94.277-49.788s3.537-24.432,21-27.106Z"
        style="stroke:black;fill:black;stroke-width:1px;" id="e14_areaS3" />
    <path
        d="M303.2457,16.19569c3.94-9.96,14.67-5.15,34.64-2.52s72.57,14.57,104.3,27.06s27.43,10.97,41,17s13.7,17.35,13,23s-17.28,90.94-40,109s-154.01-5.48-167-27s-16.29-51.24,8-130Z"
        style="stroke:black;fill:black;stroke-width:1px;" id="e16_areaS3" />
    <ellipse id="e17_ellipse" cx="280.731750" cy="264.373718" style="fill:black;stroke:black;stroke-width:1px;"
        rx="12.590500" ry="16.539499" />
    <ellipse id="e2_ellipse" cx="346.731750" cy="272.373718" style="fill:black;stroke:black;stroke-width:1px;"
        rx="12.590500" ry="16.539499" />
    <circle id="e18_circle" cx="285.735748" cy="260.375732" style="fill:white;stroke:white;stroke-width:1px;"
        r="3.208480" />
    <circle id="e3_circle" cx="342.735748" cy="265.375732" style="fill:white;stroke:white;stroke-width:1px;"
        r="3.208480" />
    <path
        d="M196.7537,507.27769q-2.097-7.927-36.513-35.683q-12.825-9.267,2.489-3.042q13.197-7.078,20.193-13.831q2.714-4.568,13.277-16.597q4.764-6.319,18.257-12.724q8.775-5.994,17.703-12.448q6.44-3.726,12.724-1.383q10.932-4.806,22.682-4.426q22.12,6.514,23.789,21.576q14.897,6.539,52.28,9.405q21.587-0.5,48.684-8.851q13.803-6.537,36.236-9.958q10.786-1.365,18.257,13.277q3.816,3.641,3.319,16.597q0.245,7.347-16.597,20.469q-14.45,9.374-34.3,11.065q3.242,24.04,6.086,37.066q10.078,22.529,28.215,56.429q3.375,7.074,3.873,16.597q-2.049,8.069-12.724,9.958q-10.312,3.94-21.023,3.873q-16.6,2.899-26.555,14.937q-3.526-3.599,0.553-14.937q0.879-4.217,1.66-17.15q-1.526-8.384-7.745-33.194q-4.603-9.338-13.831-39.279q-3.885-6.35-3.873-27.661q-15.336,3.335-50.344-2.213q-41.765-8.172-61.132-19.363q-6.784,6.105-24.342,22.129Z"
        style="stroke:teal;fill:teal;stroke-width:1px;" id="e4_area2" />
    <path d="M192.4057,498.03569q-43.15,56.43,26.55,69.71" style="fill:none;stroke:black;stroke-width:1px;"
        id="e5_arc2" />
    <path d="M432.2357,561.43569c46.47-1.1,77.45-44.26,16.6-79.66" style="fill:none;stroke:black;stroke-width:1px;"
        id="e13_arc3" />
    <path
        d="M326.136858,536.044532c11.301-18.802,23.771-25.335,36.513-24.895c16.891-0.39,28.77,14.758,29.321,24.895c1.934,21.478-5.988,27.968-16.044,42.045c-8.397,13.801-28.409,27.142-49.237,42.045c-16.679-9.439-31.711-20.273-52.557-44.258c-8.398-10.432-15.59-28.398-13.277-38.173c2.313-9.775,6.397-23.986,27.938-26.555c2.178,1.027,21.617-4.709,37.343,24.895Z"
        style="stroke:red;fill:red;stroke-width:1px;" id="e15_area3" />
    <path
        d="M215.4857,547.09869c0.988-3.306,0.658-5.309,4.841-6.5c13.171-0.638,18.905-0.338,31.811-0.138c5.16,1.83,4.876,3.645,6.224,5.533c0.657,15.442,1.782,26.61,0.277,37.62c-0.399,1.328-1.575,5.547-5.118,5.947c-11.673,0.953-23.913-0.716-31.672-1.245c-4.44-3.018-3.48-1.159-5.809-5.671c-0.946-4.097-0.9-21.45-0.968-26.417Z"
        style="stroke:silver;fill:silver;stroke-width:1px;" id="e17_area3" />
    <path
        d="M386.848045,549.311602c0.849693-5.242298,2.732605-7.245298,6.915605-8.436298c13.171-0.638,18.905-0.338,31.811-0.138c5.16,1.83,4.876,3.645,6.224,5.533c0.657,15.442,1.782,26.61,0.277,37.62c-0.399,1.328-1.575,5.547-5.118,5.947c-11.673,0.953-16.721037,1.635219-28.90586,1.382833c-6.376298,0.301367-8.597358-3.233605-10.511437-5.394386c-0.116158-3.820386-0.9-16.609256-0.553079-26.831921Z"
        style="stroke:silver;fill:silver;stroke-width:1px;" id="e25_area3" />
    <path
        d="M386.1847,549.58369c-3.436-2.12-11.454-4.482-15.49-4.564s-12.687,1.72-16.321,4.841s-7.7,8.357-8.436,12.171s-0.545,8.323,0.138,9.682s1.954,6.545,9.681,10.788s11.101,4.095,14.799,4.15s13.121-1.404,16.182-4.564s3.433-27.364-0.553-32.502Z"
        style="stroke:saddlebrown;fill:saddlebrown;stroke-width:1px;" id="e21_areaS3" />
    <path
        d="M258.8407,550.27569c4.176-3.32,7.735-3.918,10.511-4.564c2.776-0.646,8.519-0.816,11.341-0.277c2.822,0.54,7.717,2.174,10.65,4.287c4.177,2.251,8.745,10.098,9.128,13.692c0.383,3.594-0.891,9.659-3.043,12.448c-1.875,2.789-7.758,7.471-11.065,8.713c-3.307,1.242-10.607,1.7-14.107,1.521c-3.5-0.178-8.751-1.012-13.139-4.564c-2.452-4.245-3.07-22.405-0.277-31.257Z"
        style="stroke:saddlebrown;fill:saddlebrown;stroke-width:1px;" id="e23_area3" />
</svg>