<svg xmlns="http://www.w3.org/2000/svg" xmlns:xlink="http://www.w3.org/1999/xlink" width="1310px" height="800px"
    viewBox="0 0 1310 800" preserveAspectRatio="xMinYMin meet">
    <rect id="svgEditorBackground" x="0" y="0" width="1310" height="800" style="fill:none; stroke: none;" />
    <path
        d="M407,680c-43.51,26.08,-68.13,35.45,-81,38c-22.87,6.55,-49.1,9.73,-84,8c-25.9,-4.73,-44.06,-10.22,-55,-24c-9.4,-15.78,11.94,-28.36,4,-27c-7.94,1.36,-35.13,19.19,-68,18c-26.87,0.81,-43.52,-1.39,-53,-20c-1.48,-10.61,3.13,-21.46,11,-31c20.87,-13.54,34.7,-25.59,58,-44c34.3,-36.41,68.75,-68.5,68,-78c-21.75,5.5,-36.37,5.39,-47,6c-18.63,-4.39,-29.05,-4.68,-39,-13c-7.95,-11.32,-0.39,-29.84,11,-40c11.39,-10.16,41.01,-24.92,70,-54c36.99,-42.08,62,-60,65,-77c-26,7,-41.93,9.2,-57,10c-12.07,-1.2,-25.88,-0.43,-33,-9c-7.12,-6.57,-0.37,-21.86,13,-34c13.37,-12.14,70.9,-50.86,89,-70c18.1,-19.14,53.13,-56.81,69,-70c15.87,-13.19,38.58,-32.57,55,-38c47.42,259.57,54.51,307.92,4,549Z"
        style="stroke:none;fill:green;stroke-width:1px;" id="e7_area3" />
    <path
        d="M406,679c-43.51,26.08-68.13,35.45-81,38c-22.87,6.55-49.1,9.73-84,8c-25.9-4.73-44.06-10.22-55-24c-9.4-15.78,11.94-28.36,4-27c-7.94,1.36-35.13,19.19-68,18c-26.87,0.81-43.52-1.39-53-20c-1.48-10.61,3.13-21.46,11-31c20.87-13.54,34.7-25.59,58-44c34.3-36.41,68.75-68.5,68-78c-21.75,5.5-36.37,5.39-47,6c-18.63-4.39-29.05-4.68-39-13c-7.95-11.32-0.39-29.84,11-40c11.39-10.16,41.01-24.92,70-54c36.99-42.08,62-60,65-77c-26,7-41.93,9.2-57,10c-12.07-1.2-25.88-0.43-33-9c-7.12-6.57-0.37-21.86,13-34c13.37-12.14,70.9-50.86,89-70c18.1-19.14,53.13-56.81,69-70c15.87-13.19,38.58-32.57,55-38c47.42,259.57,54.51,307.92,4,549Z"
        style="stroke:none;fill:green;stroke-width:1px;" id="e1_area3" transform="matrix(-1 0 0 1 804.566 1)" />
</svg>