<svg xmlns="http://www.w3.org/2000/svg" xmlns:xlink="http://www.w3.org/1999/xlink" width="1310px" height="850px"
    viewBox="0 0 1310 800" preserveAspectRatio="xMinYMin meet">
    <rect id="svgEditorBackground" x="0" y="0" width="1310" height="850" style="fill:none; stroke: none;" />
    <path
        d="M384.99905,833.986698c-22.93,-0.24,-47.15,5.97,-46,-25c5.15,-73.97,3.02,-63.31,2,-95c15.98,-22.69,111.35,-23.35,131,-2c0.65,24.35,-0.88,23.87,0,99c-1.12,30.13,-19.2,21.62,-34,24c-9.8,-0.62,-28.07,-0.76,-53,-1Z"
        style="stroke:none;fill:#77563d;stroke-width:1px;" id="e4_area3" />
    <path
        d="M409.0019,740.05701c-43.51,26.08-68.13,35.45-81,38c-22.87,6.55-49.1,9.73-84,8c-25.9-4.73-44.06-10.22-55-24c-9.4-15.78,11.94-28.36,4-27c-7.94,1.36-35.13,19.19-68,18c-26.87,0.81-43.52-1.39-53-20c-1.48-10.61,3.13-21.46,11-31c20.87-13.54,34.7-25.59,58-44c34.3-36.41,68.75-68.5,68-78c-21.75,5.5-36.37,5.39-47,6c-18.63-4.39-29.05-4.68-39-13c-7.95-11.32-0.39-29.84,11-40c11.39-10.16,41.01-24.92,70-54c36.99-42.08,62-60,65-77c-26,7-41.93,9.2-57,10c-12.07-1.2-25.88-0.43-33-9c-7.12-6.57-0.37-21.86,13-34c13.37-12.14,70.9-50.86,89-70c18.1-19.14,53.13-56.81,69-70c15.87-13.19,38.58-32.57,55-38c47.42,259.57,54.51,307.92,4,549Z"
        style="stroke:none;fill:#008059;stroke-width:1px;" id="e7_area3" />
    <path
        d="M403.9981,739.05701c-43.51,26.08,-68.13,35.45,-81,38c-22.87,6.55,-49.1,9.73,-84,8c-25.9,-4.73,-44.06,-10.22,-55,-24c-9.4,-15.78,11.94,-28.36,4,-27c-7.94,1.36,-35.13,19.19,-68,18c-26.87,0.81,-43.52,-1.39,-53,-20c-1.48,-10.61,3.13,-21.46,11,-31c20.87,-13.54,34.7,-25.59,58,-44c34.3,-36.41,68.75,-68.5,68,-78c-21.75,5.5,-36.37,5.39,-47,6c-18.63,-4.39,-29.05,-4.68,-39,-13c-7.95,-11.32,-0.39,-29.84,11,-40c11.39,-10.16,41.01,-24.92,70,-54c36.99,-42.08,62,-60,65,-77c-26,7,-41.93,9.2,-57,10c-12.07,-1.2,-25.88,-0.43,-33,-9c-7.12,-6.57,-0.37,-21.86,13,-34c13.37,-12.14,70.9,-50.86,89,-70c18.1,-19.14,53.13,-56.81,69,-70c15.87,-13.19,38.58,-32.57,55,-38c47.42,259.57,54.51,307.92,4,549Z"
        style="stroke:none;fill:#008059;stroke-width:1px;" id="e1_area3" transform="matrix(-1 0 0 1 804.566 1)" />
    <path
        d="M407.27752,205.942949c-24.79,11.67-44.89,33.79-59,26s8.85-55.35,2-72s-53.95-31.95-50-49s58.07-3.86,73-15s16.91-64.28,35-63.42s23.12,44.2,33.03,59.05s69.71-2.89,73.07,15.02s-37.95,32.93-44.04,48.05s17.51,63.95,2,74.07s-47.85-23.67-65.06-22.77Z"
        style="stroke:yellow;fill:yellow;stroke-width:1px;" id="e10_areaS3"
        transform="matrix(0.95274 0 0 0.95274 12.5402 -1.70034)">
        <animate 
            attributeType="XML"
            attributeName="fill"
            values="#fff838;#fffb78;#fff838;"
            dur="3s" repeatCount="indefinite" />
    </path>
</svg>